HIERARCHY
ROOT SimulationBone
{
	OFFSET 0.000000 0.000000 0.000000
	CHANNELS 6 Xposition Yposition Zposition Zrotation Yrotation Xrotation 
	JOINT Hips
	{
		OFFSET 0.000000 0.000000 0.000000
		CHANNELS 6 Xposition Yposition Zposition Zrotation Yrotation Xrotation 
		JOINT LeftUpLeg
		{
			OFFSET 0.103459 1.857823 10.548503
			CHANNELS 3 Zrotation Yrotation Xrotation
			JOINT LeftLeg
			{
				OFFSET 43.499996 -0.000023 0.000000
				CHANNELS 3 Zrotation Yrotation Xrotation
				JOINT LeftFoot
				{
					OFFSET 42.372200 0.000004 0.000000
					CHANNELS 3 Zrotation Yrotation Xrotation
					JOINT LeftToe
					{
						OFFSET 17.300018 0.000006 0.000005
						CHANNELS 3 Zrotation Yrotation Xrotation
						End Site
						{
							OFFSET 0.000000 0.000000 0.000000
						}
					}
				}
			}
		}
		JOINT RightUpLeg
		{
			OFFSET 0.103455 1.857822 -10.548502
			CHANNELS 3 Zrotation Yrotation Xrotation
			JOINT RightLeg
			{
				OFFSET 43.500046 0.000008 0.000013
				CHANNELS 3 Zrotation Yrotation Xrotation
				JOINT RightFoot
				{
					OFFSET 42.372261 -0.000023 0.000013
					CHANNELS 3 Zrotation Yrotation Xrotation
					JOINT RightToe
					{
						OFFSET 17.299988 -0.000007 0.000011
						CHANNELS 3 Zrotation Yrotation Xrotation
						End Site
						{
							OFFSET 0.000000 0.000000 0.000000
						}
					}
				}
			}
		}
		JOINT Spine
		{
			OFFSET 6.901964 -2.603734 -0.000001
			CHANNELS 3 Zrotation Yrotation Xrotation
			JOINT Spine1
			{
				OFFSET 12.588106 0.000013 -0.000000
				CHANNELS 3 Zrotation Yrotation Xrotation
				JOINT Spine2
				{
					OFFSET 12.343193 -0.000017 0.000001
					CHANNELS 3 Zrotation Yrotation Xrotation
					JOINT Neck
					{
						OFFSET 25.832893 -0.000002 -0.000002
						CHANNELS 3 Zrotation Yrotation Xrotation
						JOINT Head
						{
							OFFSET 11.766612 0.000007 0.000002
							CHANNELS 3 Zrotation Yrotation Xrotation
							End Site
							{
								OFFSET 0.000000 0.000000 0.000000
							}
						}
					}
					JOINT LeftShoulder
					{
						OFFSET 19.745903 -1.480356 6.000103
						CHANNELS 3 Zrotation Yrotation Xrotation
						JOINT LeftArm
						{
							OFFSET 11.284128 0.000005 -0.000009
							CHANNELS 3 Zrotation Yrotation Xrotation
							JOINT LeftForeArm
							{
								OFFSET 33.000053 -0.000022 0.000028
								CHANNELS 3 Zrotation Yrotation Xrotation
								JOINT LeftHand
								{
									OFFSET 25.200006 0.000028 0.000005
									CHANNELS 3 Zrotation Yrotation Xrotation
									End Site
									{
										OFFSET 0.000000 0.000000 0.000000
									}
								}
							}
						}
					}
					JOINT RightShoulder
					{
						OFFSET 19.746094 -1.480350 -6.000075
						CHANNELS 3 Zrotation Yrotation Xrotation
						JOINT RightArm
						{
							OFFSET 11.284135 -0.000011 -0.000017
							CHANNELS 3 Zrotation Yrotation Xrotation
							JOINT RightForeArm
							{
								OFFSET 33.000092 0.000037 0.000003
								CHANNELS 3 Zrotation Yrotation Xrotation
								JOINT RightHand
								{
									OFFSET 25.199785 0.000114 0.000427
									CHANNELS 3 Zrotation Yrotation Xrotation
									End Site
									{
										OFFSET 0.000000 0.000000 0.000000
									}
								}
							}
						}
					}
				}
			}
		}
	}
}
MOTION
Frames: 6
Frame Time: 0.016667
-313.479526 0.000000 400.779926 0.000000 93.362996 0.000000 0.387802 87.084808 1.549255 95.142117 3.662159 -179.748388 155.081481 -1.585993 -179.864576 -18.416270 0.303828 2.971448 67.108431 -3.239820 -3.024842 21.454557 0.003103 0.000016 -157.479710 -6.806504 172.424697 -14.936247 4.670934 -1.713525 87.325866 -0.739278 -9.707984 21.454548 -0.003085 0.000001 8.172080 0.554727 1.155382 6.342249 1.045576 2.339390 6.024375 1.059545 2.333042 19.277980 -5.140964 -8.585394 -20.696878 12.424298 -14.087878 162.150561 -74.635993 16.851028 0.994598 55.098816 45.322498 -35.623657 -19.312643 1.655145 4.157746 -9.169318 5.786539 -178.273661 81.285521 3.305623 -23.433722 -59.733062 -39.044659 -32.966160 16.632457 -1.395259 2.328685 20.331742 0.121434 
-313.700004 0.000000 399.168396 0.000000 92.933631 0.000000 0.448225 87.211579 1.412913 95.191701 2.925053 -179.544806 155.559701 -0.592554 -179.083249 -19.415349 0.332296 2.204280 66.180952 -2.521061 -2.522443 21.454558 0.003105 0.000015 -156.985497 -5.956206 173.149015 -15.803823 4.439804 -2.109947 86.124777 -0.478402 -9.247289 21.454550 -0.003087 0.000000 8.186749 0.340157 1.132053 6.366909 0.617777 2.281063 6.049053 0.631405 2.277285 19.354171 -5.240573 -8.458256 -20.607261 12.704781 -14.049036 162.429462 -74.552830 16.569914 1.485099 54.833845 45.447260 -35.576871 -19.328378 1.655070 4.221424 -9.342594 5.696327 -178.930952 81.382438 2.640972 -22.306837 -60.406935 -39.440645 -32.385507 16.299340 -1.361281 2.977976 16.342656 -0.624734 
-313.920896 0.000000 397.562743 0.000000 92.515483 0.000000 0.535744 87.377068 1.305561 95.217237 2.284409 -179.303786 155.968476 0.134996 -178.524916 -20.721377 0.129477 1.569419 66.570984 -1.880956 -2.085339 21.454560 0.003109 0.000016 -156.823671 -5.292499 174.167980 -17.210444 4.038821 -2.647584 84.571060 -0.094485 -8.584674 21.454553 -0.003090 -0.000001 8.195268 0.143220 1.104645 6.379912 0.225585 2.215488 6.062060 0.238822 2.214065 19.349497 -5.346740 -8.332466 -20.372868 12.977096 -13.989916 162.687401 -74.455697 16.310728 1.901234 54.549044 45.514378 -35.402417 -19.287875 1.648257 4.315711 -9.575522 5.555804 -179.312314 81.447662 2.255606 -21.130472 -61.047300 -39.855320 -31.742255 15.897369 -1.322140 3.581588 12.871158 -1.321134 
-314.142027 0.000000 395.966833 0.000000 92.106942 0.000000 0.595400 87.582626 1.217101 95.146906 1.714377 -179.110147 156.247497 0.613117 -178.574350 -22.181249 -0.253563 1.426561 67.726197 -1.420064 -1.194941 21.454559 0.003110 0.000017 -157.146143 -4.709882 175.169890 -19.189571 3.563088 -3.202222 82.791176 0.372764 -7.628334 21.454553 -0.003092 -0.000002 8.190407 -0.044634 1.090088 6.366560 -0.148882 2.176078 6.048716 -0.135888 2.176924 19.238233 -5.340692 -8.226103 -20.067280 13.108197 -13.889393 163.067869 -74.449615 15.922204 2.038110 54.344821 45.493374 -35.018010 -19.213455 1.634299 4.421095 -9.847058 5.180196 -179.170329 81.406467 2.398777 -19.967039 -61.558113 -40.452557 -31.009824 15.492990 -1.281345 3.931215 10.181234 -1.590402 
-314.362031 0.000000 394.384539 0.000000 91.708043 0.000000 0.597933 87.822258 1.129562 95.017876 1.187533 -179.017987 156.596662 0.992994 -179.007005 -23.390830 -0.596683 1.529641 69.047816 -1.114681 -0.192054 21.454558 0.003108 0.000017 -157.910763 -4.036111 175.862003 -21.679440 3.296676 -3.682528 80.803282 0.852926 -6.514378 21.454553 -0.003093 -0.000003 8.183051 -0.228917 1.097181 6.348368 -0.517360 2.180202 6.030523 -0.504341 2.183287 19.140027 -5.240008 -8.126924 -19.869094 13.178615 -13.788123 163.362674 -74.506998 15.618410 1.980422 54.201511 45.306870 -34.544948 -19.117365 1.617086 4.554522 -9.987286 4.792304 -178.867300 81.354198 2.704996 -18.880551 -61.999995 -41.209965 -30.236300 15.100068 -1.240699 3.973436 8.284220 -1.675154 
-314.580305 0.000000 392.819608 0.000000 91.318671 0.000000 0.535874 88.094761 1.028776 94.885456 0.691499 -179.057176 157.237629 1.408844 -179.502126 -23.976247 -0.719534 1.551778 70.056347 -0.890239 0.488253 21.454557 0.003105 0.000017 -159.045930 -3.148094 176.145793 -24.628136 3.441104 -4.108643 78.600216 1.340819 -5.332431 21.454553 -0.003094 -0.000004 8.184564 -0.409300 1.128169 6.347879 -0.879553 2.232314 6.030007 -0.866202 2.237590 19.168118 -5.104833 -8.018476 -19.907402 13.288732 -13.722553 163.369557 -74.579122 15.608202 1.856845 54.084706 44.908204 -34.117368 -19.011076 1.600398 4.736262 -9.857391 4.630771 -178.895136 81.395144 2.677442 -17.869818 -62.431763 -42.103025 -29.516484 14.730633 -1.202793 3.778804 7.079531 -1.905445 
